<svg xmlns="http://www.w3.org/2000/svg" width="430" height="430" style="width:100%;height:100%;transform:translate3d(0,0,0);content-visibility:visible" viewBox="0 0 430 430"><defs><clipPath id="g"><path d="M0 0h430v430H0z"/></clipPath><clipPath id="k"><path d="M0 0h430v430H0z"/></clipPath><clipPath id="h"><path d="M0 0h430v430H0z"/></clipPath><filter id="a" width="100%" height="100%" x="0%" y="0%" filterUnits="objectBoundingBox"><feComponentTransfer in="SourceGraphic"><feFuncA tableValues="1.0 0.0" type="table"/></feComponentTransfer></filter><filter id="c" width="100%" height="100%" x="0%" y="0%" filterUnits="objectBoundingBox"><feComponentTransfer in="SourceGraphic"><feFuncA tableValues="1.0 0.0" type="table"/></feComponentTransfer></filter><filter id="e" width="100%" height="100%" x="0%" y="0%" filterUnits="objectBoundingBox"><feComponentTransfer in="SourceGraphic"><feFuncA tableValues="1.0 0.0" type="table"/></feComponentTransfer></filter><path id="b" style="display:none"/><path id="d" fill="red" d="M0-70c38.633 0 70 31.367 70 70S38.633 70 0 70-70 38.633-70 0s31.367-70 70-70" style="display:block" transform="translate(305 320)"/><path id="f" fill="red" d="M0-70c38.633 0 70 31.367 70 70S38.633 70 0 70-70 38.633-70 0s31.367-70 70-70" style="display:block" transform="translate(305 320)"/><mask id="l" mask-type="alpha"><g filter="url(#a)"><path fill="#fff" d="M0 0h430v430H0z" opacity="0"/><use xmlns:ns1="http://www.w3.org/1999/xlink" ns1:href="#b"/></g></mask><mask id="j" mask-type="alpha"><g filter="url(#c)"><path fill="#fff" d="M0 0h430v430H0z" opacity="0"/><use xmlns:ns2="http://www.w3.org/1999/xlink" ns2:href="#d"/></g></mask><mask id="i" mask-type="alpha"><g filter="url(#e)"><path fill="#fff" d="M0 0h430v430H0z" opacity="0"/><use xmlns:ns3="http://www.w3.org/1999/xlink" ns3:href="#f"/></g></mask></defs><g clip-path="url(#g)"><g clip-path="url(#h)" style="display:block"><path fill="none" stroke="#121331" stroke-linecap="round" stroke-linejoin="round" stroke-width="12" d="M63 0h-203" class="primary" style="display:block" transform="translate(195 375)"/><path fill="none" stroke="#121331" stroke-linejoin="round" stroke-width="12" d="M-35 50V-50h70V50" class="primary" style="display:block" transform="translate(115 325)"/><g mask="url(#i)" style="display:block"><path fill="none" stroke="#121331" stroke-linejoin="round" stroke-width="12" d="M180 375V185h70v190" class="primary"/></g><g mask="url(#j)" style="display:block"><path fill="none" stroke="#121331" stroke-linecap="round" stroke-linejoin="round" stroke-width="12" d="M280 355V95h70v250" class="primary"/></g><path fill="none" stroke="#08A88A" stroke-linecap="round" stroke-linejoin="round" stroke-width="12" d="M85-20v-60H25m60 0L-85 80" class="secondary" style="display:block" transform="translate(165 135)"/><path fill="none" stroke="#08A88A" stroke-linecap="round" stroke-linejoin="round" stroke-width="12" d="M0-40v11.56m0 57.189V40m16.751-68.4H-5.461a14.34 14.34 0 0 0-14.34 14.329A14.32 14.32 0 0 0-15.6-3.934 14.33 14.33 0 0 0-5.461.259H5.501a14.3 14.3 0 0 1 10.122 4.199 14.3 14.3 0 0 1 4.178 10.131A14.25 14.25 0 0 1 5.66 28.809l-25.042-.219" class="secondary" style="display:block" transform="translate(304.801 320)"/><path fill="none" stroke="#08A88A" stroke-width="12" d="M0-70c38.633 0 70 31.367 70 70S38.633 70 0 70-70 38.633-70 0s31.367-70 70-70z" class="secondary" style="display:block" transform="translate(305 320)"/></g><g clip-path="url(#k)" style="display:none"><path fill="none" class="primary" style="display:none"/><path fill="none" class="primary" style="display:none"/><g mask="url(#l)" style="display:none"><path fill="none" class="primary"/></g><path fill="none" class="primary" style="display:none"/><path fill="none" class="secondary" style="display:none"/><g fill="none" style="display:none"><path class="secondary"/><path class="secondary"/></g><path fill="none" class="secondary" style="display:none"/></g></g></svg>