<?xml version="1.0" encoding="utf-8"?>
<svg width="14" height="15" viewBox="0 0 14 15" fill="none" xmlns="http://www.w3.org/2000/svg">
  <g transform="matrix(-1 0 0 1 14 0)">
    <path d="M4.21159 8.88684C4.04073 9.0699 4.04073 9.36665 4.21159 9.54972C4.38244 9.73278 4.65943 9.73278 4.83029 9.54972C4.83029 9.54972 4.21159 8.88684 4.21159 8.88684ZM7.4375 6.09377C7.4375 6.09377 7.74684 6.4252 7.74684 6.4252C7.9177 6.24214 7.9177 5.94539 7.74684 5.76233C7.74684 5.76233 7.4375 6.09377 7.4375 6.09377ZM4.83029 2.63705C4.65943 2.45399 4.38244 2.45399 4.21159 2.63705C4.04073 2.8201 4.04073 3.1169 4.21159 3.29996C4.21159 3.29996 4.83029 2.63705 4.83029 2.63705ZM4.83032 9.5502C4.83032 9.5502 7.74699 6.4252 7.74699 6.4252L7.12831 5.76233L4.21162 8.88733C4.21162 8.88733 4.83032 9.5502 4.83032 9.5502ZM7.74699 5.76247C7.74699 5.76247 4.83032 2.63745 4.83032 2.63745L4.21162 3.30036L7.12831 6.42535C7.12831 6.42535 7.74699 5.76247 7.74699 5.76247ZM10.5 6.09375C10.5 8.94144 8.34534 11.25 5.6875 11.25C5.6875 11.25 5.6875 12.1875 5.6875 12.1875C8.82863 12.1875 11.375 9.45925 11.375 6.09375C11.375 6.09375 10.5 6.09375 10.5 6.09375ZM5.6875 11.25C3.02963 11.25 0.875 8.94144 0.875 6.09375C0.875 6.09375 0 6.09375 0 6.09375C0 9.45925 2.54638 12.1875 5.6875 12.1875C5.6875 12.1875 5.6875 11.25 5.6875 11.25ZM0.875 6.09375C0.875 3.24603 3.02963 0.9375 5.6875 0.9375C5.6875 0.9375 5.6875 0 5.6875 0C2.54638 0 0 2.72826 0 6.09375C0 6.09375 0.875 6.09375 0.875 6.09375ZM5.6875 0.9375C8.34534 0.9375 10.5 3.24603 10.5 6.09375C10.5 6.09375 11.375 6.09375 11.375 6.09375C11.375 2.72826 8.82863 0 5.6875 0C5.6875 0 5.6875 0.9375 5.6875 0.9375Z" fill="#29D3F1" transform="translate(1.313 1.406)" />
  </g>
</svg>